# xmcd CD database file
#
# Track frame offsets:
#	150
#	15144
#	34920
#	51317
#	79624
#	100436
#	122630
#	137418
#	158629
#	173883
#	196513
#	210056
#	243562
#	265474
#	277395
#	310518
#	321740
#
# Disc length: 4523 seconds
#
# Revision: 0
# Processed by: cddbd v1.5.2PL0 Copyright (c) Steve Scherf et al.
# Submitted via: CDex 1.51
#
DISCID=e411a911
DTITLE=Homage Freaks - Remastered
DYEAR=1900
DGENRE=Rhythmic Soul
TTITLE0=Simon
TTITLE1=Warts On The Inside
TTITLE2=Punky Dancing
TTITLE3=Rickety Jumpy Boy
TTITLE4=Ozone Fiendly
TTITLE5=To The Core
TTITLE6=Stupor
TTITLE7=Drink Think Sink
TTITLE8=Who Are You
TTITLE9=Take Care
TTITLE10=Serene
TTITLE11=Blown My Swede
TTITLE12=Haunted
TTITLE13=Attitude
TTITLE14=Karma
TTITLE15=Hair
TTITLE16=Sucker For A Happy Ending
EXTD=
EXTT0=
EXTT1=
EXTT2=
EXTT3=
EXTT4=
EXTT5=
EXTT6=
EXTT7=
EXTT8=
EXTT9=
EXTT10=
EXTT11=
EXTT12=
EXTT13=
EXTT14=
EXTT15=
EXTT16=
PLAYORDER=
